<svg xmlns="http://www.w3.org/2000/svg" viewBox="0 0 365.13 427.71"><defs><style>.cls-1{fill:#070015;}</style></defs><g id="Layer_2" data-name="Layer 2"><g id="Layer_1-2" data-name="Layer 1"><path class="cls-1" d="M37.32,426.56c-2.17.22-3.92.52-5.68.52-2.05,0-4.1-.26-6.61-.44-.18-1.94-.44-3.39-.44-4.85-.06-40.18-6.87-79.44-15.23-118.6C2.16,269.4-1.87,235.11.86,200.47c2.1-26.75,10.19-51.36,28.86-71.58A104.48,104.48,0,0,1,68,102.94c22.64-9.11,46.28-13,70.66-12.69,3.26,0,6.53,0,11.34,0-2.4-6-4.25-10.71-6.17-15.4-2.31-5.65-4.93-11.18-7-16.92-3-8.4.45-12.46,9.17-11.13q24.85,3.77,49.67,7.75c8.75,1.41,8.76,1.53,12.78-6.14,7.22-13.77,14.33-27.6,21.65-41.32a16.83,16.83,0,0,1,5-6.21c3.18-2.09,6.91-.43,9.66,4.19,6.69,11.28,13,22.77,19.71,34.05,9.45,15.92,5.06,13.44,22.21,9s34.14-9.22,51.2-13.85c.59-.16,1.17-.38,1.76-.5,3.31-.64,6.82-1.58,9.42,1.42,2.84,3.29,1.59,6.86,0,10.28Q337.09,71.12,325,96.77c-1.8,3.84-3.54,7.7-5.58,12.15l27.42,21.6c4.32,3.4,8.74,6.67,12.93,10.21,7.57,6.42,7.19,10.66-1.54,14.87-13.46,6.49-27,12.9-40.66,18.87-5.17,2.25-7.31,5.2-7.55,10.91-.72,17.37-2,34.7-3.14,52.05-.09,1.52-.1,3.06-.33,4.56-1.11,7-6.27,9.3-11.68,4.66-6-5.15-11.51-10.91-17.22-16.41-3.93-3.77-7.85-7.56-11.67-11.25-1,.66-1.72.91-1.76,1.26-2.58,22.08-4.79,44.21-7.71,66.25-5.5,41.48-8.82,83.1-8.86,125,0,4.58-.13,9.16-.26,13.73a13.44,13.44,0,0,1-.74,2.53H234.58a72.74,72.74,0,0,1-.65-7.46c.44-55,4.44-109.68,13.38-164,4.32-26.19,4.83-52.32-4.48-77.68-14.55-39.64-43-63.52-84.11-72.14-31.21-6.55-61.39-1.64-90.18,11.08C40.28,130,23.92,152.59,17.19,182.4c-4.48,19.85-4.41,39.91-2.82,60.07C16.7,272,22.37,301,28.54,330a428.88,428.88,0,0,1,9.23,88.12C37.78,420.75,37.5,423.42,37.32,426.56Zm254.9-201.33,1.95-.76c1-15.46,2.36-30.91,3-46.39.24-6.31,2.4-10.13,8.26-12.67,11.19-4.85,22.16-10.21,33.17-15.46a56.7,56.7,0,0,0,6.06-4c-11.62-9.1-22.41-17.55-33.19-26-8.46-6.62-8.68-7.56-4-17.54,7.12-15.19,14.28-30.36,21.33-45.58.78-1.68.93-3.66,1.56-6.24-3.74.87-6.4,1.41-9,2.12-15.31,4.15-30.59,8.36-45.89,12.51-8.74,2.38-10.24,1.81-14.78-6-5.07-8.7-10-17.48-15-26.19-2.08-3.6-4.33-7.1-7-11.46C237,24.09,235.84,25.44,235,27c-6.42,12.13-12.67,24.35-19.22,36.41-3.6,6.63-5.13,7.16-12.52,6-9.33-1.49-18.6-3.5-28-4.36-6.78-.63-13.47-3.94-21.28-1.39,2.75,6.82,5.85,13.13,7.84,19.77,2.34,7.81,7.08,11.52,14.87,14,33.61,10.8,58.5,32.25,73.64,64.24,4.27,9,6.55,19,9.83,28.46.88,2.54,1.43,5.6,3.19,7.36C272.81,206.89,282.58,216,292.22,225.23Z"/><path class="cls-1" d="M219.63,194.8c-1.45,14.82-1.49,29.94-4.64,44.39-9,41.44-47.1,69.79-89.9,68.3-41.19-1.43-77-32.77-83.9-73.75a138,138,0,0,1-1.73-20c-.3-14.94.09-29.9-.39-44.83-.22-6.61,2.1-10.65,7.65-14.15A135.18,135.18,0,0,1,106,134.68c30.4-3.12,60.35-.73,88.7,12,6.36,2.86,12.31,6.64,18.5,9.91,4,2.09,5.49,5.26,5.41,9.71-.18,9.45-.06,18.91-.06,28.36ZM52.35,197.67h.85c0,7.92-.34,15.85.06,23.74,2.1,41.49,35.55,72.92,76.85,72.42,40.88-.5,73.52-33.4,74.37-74.95q.35-16.9.75-33.79c.46-19.49.33-19.71-18.06-27.05-28.15-11.22-57.22-13.91-87-8.95a137.89,137.89,0,0,0-39.71,13.23c-5.86,3-8.81,6.54-8.24,13.42C52.81,183,52.35,190.36,52.35,197.67Z"/><path class="cls-1" d="M134.72,363.37l55.37,5a21.53,21.53,0,0,1,3.6.51c3.8,1,5.6,3.66,5.14,7.47-.49,4.11-3.45,5.55-7.18,5.38-4.25-.2-8.51-.55-12.73-1.12a336.33,336.33,0,0,0-89.14,0c-3.62.48-7.26.86-10.9,1-5.72.25-8.4-1.55-8.81-5.59s1.81-6.77,7.29-7.47c10.55-1.34,21.12-2.67,31.73-3.35,8.48-.54,17-.11,25.54-.11Z"/></g></g></svg>